<svg width="20" height="20" viewBox="0 0 20 20" fill="none" xmlns="http://www.w3.org/2000/svg">
<path d="M5.04485 15.8334H6.87502C7.05209 15.8334 7.20052 15.8933 7.32031 16.0132C7.4401 16.133 7.5 16.2815 7.5 16.4587C7.5 16.6358 7.4401 16.7842 7.32031 16.9039C7.20052 17.0235 7.05209 17.0834 6.87502 17.0834H3.6699C3.45649 17.0834 3.27761 17.0112 3.13325 16.8668C2.98887 16.7225 2.91669 16.5436 2.91669 16.3302V13.125C2.91669 12.948 2.97661 12.7995 3.09646 12.6797C3.21631 12.56 3.36481 12.5001 3.54196 12.5001C3.71912 12.5001 3.86753 12.56 3.98719 12.6797C4.10684 12.7995 4.16667 12.948 4.16667 13.125V14.9552L6.51925 12.6026C6.63464 12.4872 6.77967 12.4282 6.95433 12.4255C7.12901 12.4229 7.27672 12.4819 7.39744 12.6026C7.51816 12.7233 7.57852 12.8697 7.57852 13.0417C7.57852 13.2137 7.51816 13.3601 7.39744 13.4808L5.04485 15.8334ZM14.9551 15.8334L12.6026 13.4808C12.4872 13.3654 12.4281 13.2204 12.4255 13.0457C12.4228 12.871 12.4818 12.7233 12.6026 12.6026C12.7233 12.4819 12.8696 12.4215 13.0416 12.4215C13.2137 12.4215 13.36 12.4819 13.4808 12.6026L15.8333 14.9552V13.125C15.8333 12.948 15.8933 12.7995 16.0131 12.6797C16.1329 12.56 16.2814 12.5001 16.4586 12.5001C16.6358 12.5001 16.7842 12.56 16.9038 12.6797C17.0235 12.7995 17.0833 12.948 17.0833 13.125V16.3302C17.0833 16.5436 17.0111 16.7225 16.8668 16.8668C16.7224 17.0112 16.5435 17.0834 16.3301 17.0834H13.125C12.9479 17.0834 12.7995 17.0235 12.6797 16.9036C12.5599 16.7838 12.5 16.6353 12.5 16.4581C12.5 16.2809 12.5599 16.1325 12.6797 16.0129C12.7995 15.8932 12.9479 15.8334 13.125 15.8334H14.9551ZM4.16667 5.04492V6.87508C4.16667 7.05215 4.10674 7.20058 3.9869 7.32037C3.86706 7.44017 3.71856 7.50006 3.5414 7.50006C3.36424 7.50006 3.21584 7.44017 3.09619 7.32037C2.97652 7.20058 2.91669 7.05215 2.91669 6.87508V3.66996C2.91669 3.45655 2.98887 3.27767 3.13325 3.13331C3.27761 2.98894 3.45649 2.91675 3.6699 2.91675H6.87502C7.05209 2.91675 7.20052 2.97667 7.32031 3.09652C7.4401 3.21637 7.5 3.36487 7.5 3.54202C7.5 3.71919 7.4401 3.8676 7.32031 3.98725C7.20052 4.1069 7.05209 4.16673 6.87502 4.16673H5.04485L7.39744 6.51931C7.51283 6.6347 7.57185 6.77973 7.57452 6.95439C7.57719 7.12908 7.51816 7.27678 7.39744 7.3975C7.27672 7.51822 7.13035 7.57858 6.95835 7.57858C6.78634 7.57858 6.63997 7.51822 6.51925 7.3975L4.16667 5.04492ZM15.8333 5.04492L13.4808 7.3975C13.3654 7.51289 13.2203 7.57192 13.0457 7.57458C12.871 7.57725 12.7233 7.51822 12.6026 7.3975C12.4818 7.27678 12.4215 7.13042 12.4215 6.95842C12.4215 6.7864 12.4818 6.64003 12.6026 6.51931L14.9551 4.16673H13.125C12.9479 4.16673 12.7995 4.1068 12.6797 3.98696C12.5599 3.86712 12.5 3.71862 12.5 3.54146C12.5 3.3643 12.5599 3.2159 12.6797 3.09625C12.7995 2.97658 12.9479 2.91675 13.125 2.91675H16.3301C16.5435 2.91675 16.7224 2.98894 16.8668 3.13331C17.0111 3.27767 17.0833 3.45655 17.0833 3.66996V6.87508C17.0833 7.05215 17.0234 7.20058 16.9035 7.32037C16.7837 7.44017 16.6352 7.50006 16.458 7.50006C16.2809 7.50006 16.1325 7.44017 16.0128 7.32037C15.8932 7.20058 15.8333 7.05215 15.8333 6.87508V5.04492Z" fill="#EB0A1E"/>
</svg>
