<svg width="16" height="20" viewBox="0 0 16 20" fill="none" xmlns="http://www.w3.org/2000/svg">
<path d="M6.7394 10.8626L5.07562 9.19887C4.92023 9.04348 4.73839 8.9641 4.53009 8.96074C4.3218 8.9574 4.1366 9.03677 3.97451 9.19887C3.81243 9.36095 3.73139 9.54714 3.73139 9.75746C3.73139 9.96776 3.81243 10.154 3.97451 10.316L6.07833 12.4359C6.26721 12.6248 6.48757 12.7192 6.7394 12.7192C6.99123 12.7192 7.21158 12.6248 7.40046 12.4359L11.7306 8.10572C11.886 7.95035 11.9654 7.76584 11.9688 7.55218C11.9721 7.33852 11.8927 7.15064 11.7306 6.98855C11.5686 6.82647 11.3824 6.74543 11.1721 6.74543C10.9618 6.74543 10.7756 6.82647 10.6135 6.98855L6.7394 10.8626ZM7.83651 19.541C7.728 19.541 7.6215 19.5323 7.51702 19.5149C7.41253 19.4975 7.31139 19.4714 7.21361 19.4365C5.01001 18.6529 3.25685 17.2634 1.95412 15.2681C0.651373 13.2728 0 11.1198 0 8.80903V4.10311C0 3.70794 0.114535 3.35128 0.343606 3.03313C0.572677 2.71497 0.867383 2.48423 1.22772 2.3409L7.17545 0.120552C7.39916 0.0401838 7.61951 0 7.83651 0C8.05351 0 8.27387 0.0401838 8.49758 0.120552L14.4453 2.3409C14.8056 2.48423 15.1003 2.71497 15.3294 3.03313C15.5585 3.35128 15.673 3.70794 15.673 4.10311V8.80903C15.673 11.1198 15.0217 13.2728 13.7189 15.2681C12.4162 17.2634 10.663 18.6529 8.45941 19.4365C8.36163 19.4714 8.2605 19.4975 8.15601 19.5149C8.05152 19.5323 7.94502 19.541 7.83651 19.541ZM7.83651 18.0039C9.64762 17.4292 11.1453 16.2799 12.3295 14.5558C13.5136 12.8318 14.1057 10.9162 14.1057 8.80903V4.09305C14.1057 4.02607 14.0873 3.96579 14.0505 3.91221C14.0136 3.85861 13.9617 3.81841 13.8947 3.79163L7.94703 1.57128C7.91355 1.55789 7.8767 1.55119 7.83651 1.55119C7.79632 1.55119 7.75948 1.55789 7.72599 1.57128L1.77829 3.79163C1.7113 3.81841 1.65939 3.85861 1.62256 3.91221C1.58571 3.96579 1.56728 4.02607 1.56728 4.09305V8.80903C1.56728 10.9162 2.15938 12.8318 3.34356 14.5558C4.52775 16.2799 6.0254 17.4292 7.83651 18.0039Z" fill="#EB0A1E"/>
</svg>
