<svg width="20" height="20" viewBox="0 0 20 20" fill="none" xmlns="http://www.w3.org/2000/svg">
<path d="M12.0144 16.8797L7.5 15.3012L3.93679 16.6798C3.80907 16.7308 3.68558 16.7469 3.56633 16.728C3.44707 16.7091 3.33723 16.6682 3.23681 16.6053C3.13638 16.5424 3.05792 16.4574 3.00144 16.3504C2.94494 16.2435 2.91669 16.1207 2.91669 15.9823V5.06676C2.91669 4.89814 2.96076 4.74896 3.04892 4.61924C3.13706 4.48953 3.26071 4.3953 3.4199 4.33653L7.00642 3.1202C7.08235 3.09242 7.16144 3.07159 7.24371 3.0577C7.32597 3.04381 7.4114 3.03687 7.5 3.03687C7.5886 3.03687 7.67403 3.04381 7.75629 3.0577C7.83856 3.07159 7.91765 3.09242 7.99358 3.1202L12.5 4.69872L16.0632 3.32018C16.1909 3.26912 16.3144 3.25304 16.4337 3.27193C16.5529 3.2908 16.6628 3.3317 16.7632 3.39464C16.8636 3.45757 16.9421 3.54252 16.9986 3.64949C17.0551 3.75648 17.0833 3.87919 17.0833 4.01764V14.9689C17.0833 15.1381 17.0352 15.2868 16.9391 15.415C16.8429 15.5432 16.7126 15.6367 16.548 15.6955L12.9856 16.8878C12.9076 16.9155 12.8286 16.935 12.7486 16.9463C12.6686 16.9575 12.5855 16.9631 12.4994 16.9631C12.4133 16.9631 12.3304 16.9561 12.2508 16.9422C12.1712 16.9284 12.0924 16.9075 12.0144 16.8797ZM11.875 15.5224V5.77241L8.12498 4.46151V14.2115L11.875 15.5224ZM13.125 15.5224L15.8333 14.625V4.74997L13.125 5.77241V15.5224ZM4.16667 15.25L6.87502 14.2115V4.46151L4.16667 5.37497V15.25Z" fill="#EB0A1E"/>
</svg>
