<svg width="20" height="20" viewBox="0 0 20 20" fill="none" xmlns="http://www.w3.org/2000/svg">
<path d="M5.08011 16.25C4.90304 16.25 4.75461 16.1901 4.63482 16.0702C4.51503 15.9504 4.45514 15.8019 4.45514 15.6247C4.45514 15.4476 4.51503 15.2992 4.63482 15.1795C4.75461 15.0599 4.90304 15 5.08011 15H5.73239L7.33814 9.61703C7.43323 9.28797 7.61593 9.02649 7.88624 8.83257C8.15656 8.63867 8.45516 8.54172 8.78205 8.54172H11.2179C11.5448 8.54172 11.8434 8.63867 12.1137 8.83257C12.384 9.02649 12.5667 9.28797 12.6618 9.61703L14.2676 15H14.9199C15.0969 15 15.2454 15.06 15.3652 15.1798C15.4849 15.2996 15.5448 15.4481 15.5448 15.6253C15.5448 15.8025 15.4849 15.9509 15.3652 16.0705C15.2454 16.1902 15.0969 16.25 14.9199 16.25H5.08011ZM7.04966 15H12.9503L11.4583 9.97599C11.4423 9.91722 11.4116 9.87181 11.3662 9.83976C11.3208 9.8077 11.2687 9.79167 11.2099 9.79167H8.79005C8.73129 9.79167 8.6792 9.8077 8.6338 9.83976C8.58839 9.87181 8.55766 9.91722 8.54164 9.97599L7.04966 15ZM9.37501 5.99363V3.49363C9.37501 3.31655 9.43493 3.16811 9.55476 3.04832C9.67461 2.92854 9.82311 2.86865 10.0003 2.86865C10.1774 2.86865 10.3258 2.92854 10.4455 3.04832C10.5651 3.16811 10.625 3.31655 10.625 3.49363V5.99363C10.625 6.17072 10.5651 6.31915 10.4452 6.43892C10.3254 6.55872 10.1769 6.61861 9.99972 6.61861C9.82255 6.61861 9.67414 6.55872 9.55449 6.43892C9.43484 6.31915 9.37501 6.17072 9.37501 5.99363ZM13.6859 7.26286L15.4647 5.49203C15.5801 5.37665 15.723 5.31817 15.8934 5.31657C16.0638 5.31496 16.2115 5.37658 16.3363 5.50144C16.4508 5.6159 16.508 5.75913 16.508 5.93113C16.508 6.10313 16.4503 6.24683 16.3349 6.36222L14.5641 8.15388C14.4402 8.2778 14.2951 8.3411 14.129 8.34378C13.9629 8.34644 13.8152 8.28315 13.6859 8.15388C13.5566 8.0246 13.492 7.8761 13.492 7.70838C13.492 7.54065 13.5566 7.39214 13.6859 7.26286ZM15.8333 11.202H18.3333C18.5104 11.202 18.6588 11.2619 18.7786 11.3817C18.8984 11.5016 18.9583 11.6501 18.9583 11.8272C18.9583 12.0044 18.8984 12.1528 18.7786 12.2725C18.6588 12.3921 18.5104 12.4519 18.3333 12.4519H15.8333C15.6562 12.4519 15.5078 12.392 15.388 12.2722C15.2682 12.1523 15.2083 12.0038 15.2083 11.8267C15.2083 11.6495 15.2682 11.5011 15.388 11.3815C15.5078 11.2618 15.6562 11.202 15.8333 11.202ZM5.43591 8.14105L3.66507 6.36222C3.54968 6.24683 3.49119 6.10393 3.48959 5.93353C3.48798 5.76312 3.54961 5.6155 3.67447 5.49065C3.78893 5.37619 3.93216 5.31897 4.10416 5.31897C4.27616 5.31897 4.41985 5.37665 4.53524 5.49203L6.32691 7.26286C6.45084 7.38679 6.51414 7.53183 6.5168 7.69797C6.51947 7.86409 6.45617 8.01178 6.32691 8.14105C6.19763 8.27033 6.04913 8.33497 5.88141 8.33497C5.71367 8.33497 5.56517 8.27033 5.43591 8.14105ZM1.66666 12.4519C1.48957 12.4519 1.34114 12.392 1.22136 12.2722C1.10156 12.1523 1.04166 12.0038 1.04166 11.8267C1.04166 11.6495 1.10155 11.5011 1.22134 11.3815C1.34112 11.2618 1.48955 11.202 1.66664 11.202H4.16664C4.34372 11.202 4.49215 11.2619 4.61193 11.3817C4.73172 11.5016 4.79161 11.6501 4.79161 11.8272C4.79161 12.0044 4.73172 12.1528 4.61193 12.2725C4.49215 12.3921 4.34372 12.4519 4.16664 12.4519H1.66666Z" fill="#EB0A1E"/>
</svg>
