<svg width="20" height="20" viewBox="0 0 20 20" fill="none" xmlns="http://www.w3.org/2000/svg">
<path d="M12.4233 16.25C10.6776 16.25 9.19891 15.6442 7.9873 14.4325C6.7757 13.2209 6.1699 11.7423 6.1699 9.99652C6.1699 8.2638 6.7757 6.78953 7.9873 5.57371C9.19891 4.3579 10.6776 3.75 12.4233 3.75C14.1561 3.75 15.6303 4.3579 16.8461 5.57371C18.0619 6.78953 18.6698 8.2638 18.6698 9.99652C18.6698 11.7423 18.0619 13.2209 16.8461 14.4325C15.6303 15.6442 14.1561 16.25 12.4233 16.25ZM12.4199 15C13.8088 15 14.9893 14.5139 15.9615 13.5416C16.9338 12.5694 17.4199 11.3889 17.4199 9.99998C17.4199 8.61109 16.9338 7.43054 15.9615 6.45831C14.9893 5.48609 13.8088 4.99998 12.4199 4.99998C11.031 4.99998 9.85043 5.48609 8.87821 6.45831C7.90599 7.43054 7.41988 8.61109 7.41988 9.99998C7.41988 11.3889 7.90599 12.5694 8.87821 13.5416C9.85043 14.5139 11.031 15 12.4199 15ZM13.0449 9.75479V7.41985C13.0449 7.24277 12.9849 7.09433 12.8651 6.97454C12.7453 6.85475 12.5968 6.79485 12.4196 6.79485C12.2424 6.79485 12.094 6.85475 11.9744 6.97454C11.8547 7.09433 11.7949 7.24277 11.7949 7.41985V9.96471C11.7949 10.0628 11.8152 10.1579 11.8558 10.2498C11.8964 10.3418 11.9521 10.4233 12.0229 10.4945L13.9568 12.4359C14.0807 12.5651 14.2278 12.6298 14.3982 12.6298C14.5686 12.6298 14.7185 12.5651 14.8478 12.4359C14.977 12.3066 15.0416 12.1581 15.0416 11.9904C15.0416 11.8226 14.977 11.6741 14.8478 11.5449L13.0449 9.75479ZM2.78848 7.29163C2.6114 7.29163 2.46297 7.23171 2.34319 7.11188C2.2234 6.99203 2.1635 6.84353 2.1635 6.66638C2.1635 6.48921 2.2234 6.3408 2.34319 6.22115C2.46297 6.10149 2.6114 6.04167 2.78848 6.04167H4.71159C4.88866 6.04167 5.03709 6.10158 5.15688 6.22142C5.27667 6.34126 5.33657 6.48976 5.33657 6.66692C5.33657 6.84408 5.27667 6.99249 5.15688 7.11215C5.03709 7.2318 4.88866 7.29163 4.71159 7.29163H2.78848ZM1.95515 10.625C1.77807 10.625 1.62963 10.565 1.50986 10.4452C1.39007 10.3254 1.33017 10.1769 1.33017 9.99971C1.33017 9.82254 1.39007 9.67413 1.50986 9.55448C1.62963 9.43483 1.77807 9.375 1.95515 9.375H4.71159C4.88866 9.375 5.03709 9.43492 5.15688 9.55475C5.27667 9.6746 5.33657 9.8231 5.33657 10.0003C5.33657 10.1774 5.27667 10.3258 5.15688 10.4455C5.03709 10.5651 4.88866 10.625 4.71159 10.625H1.95515ZM2.78848 13.9583C2.6114 13.9583 2.46297 13.8984 2.34319 13.7785C2.2234 13.6587 2.1635 13.5102 2.1635 13.333C2.1635 13.1559 2.2234 13.0075 2.34319 12.8878C2.46297 12.7682 2.6114 12.7083 2.78848 12.7083H4.71159C4.88866 12.7083 5.03709 12.7683 5.15688 12.8881C5.27667 13.0079 5.33657 13.1564 5.33657 13.3336C5.33657 13.5108 5.27667 13.6592 5.15688 13.7788C5.03709 13.8985 4.88866 13.9583 4.71159 13.9583H2.78848Z" fill="#EB0A1E"/>
</svg>
