<svg width="20" height="20" viewBox="0 0 20 20" fill="none" xmlns="http://www.w3.org/2000/svg">
<g clip-path="url(#clip0_941_1311)">
<path d="M10 19.1666C8.44445 19.1666 6.94445 18.7083 5.5 17.7916C4.05556 16.8749 2.91667 15.8263 2.08334 14.6458V17.4999H0.833336V12.4999H5.83334V13.7499H2.97917C3.6875 14.8194 4.69792 15.7812 6.01042 16.6353C7.32292 17.4895 8.65278 17.9166 10 17.9166C11.0833 17.9166 12.1076 17.7083 13.0729 17.2916C14.0382 16.8749 14.8785 16.3089 15.5938 15.5937C16.309 14.8784 16.875 14.0381 17.2917 13.0728C17.7083 12.1076 17.9167 11.0833 17.9167 9.99992H19.1667C19.1667 11.2638 18.9271 12.4513 18.4479 13.5624C17.9688 14.6735 17.3125 15.6458 16.4792 16.4791C15.6458 17.3124 14.6736 17.9687 13.5625 18.4478C12.4514 18.927 11.2639 19.1666 10 19.1666ZM9.39584 15.9791V14.8541C8.77084 14.6874 8.24653 14.4201 7.82292 14.052C7.39931 13.6839 7.04167 13.1805 6.75 12.5416L7.8125 12.1874C7.97917 12.7152 8.27431 13.1319 8.69792 13.4374C9.12153 13.743 9.60417 13.8958 10.1458 13.8958C10.7014 13.8958 11.1632 13.7603 11.5313 13.4895C11.8993 13.2187 12.0833 12.861 12.0833 12.4166C12.0833 11.9583 11.9097 11.5728 11.5625 11.2603C11.2153 10.9478 10.5764 10.5971 9.64584 10.2083C8.8125 9.86103 8.1875 9.48603 7.77084 9.08325C7.35417 8.68047 7.14584 8.13881 7.14584 7.45825C7.14584 6.84714 7.35417 6.32631 7.77084 5.89575C8.1875 5.4652 8.74306 5.20131 9.4375 5.10409V4.04159H10.5833V5.10409C11.1111 5.15964 11.5694 5.32631 11.9583 5.60409C12.3472 5.88186 12.6597 6.26381 12.8958 6.74992L11.8958 7.22909C11.6875 6.8402 11.4306 6.54853 11.125 6.35409C10.8194 6.15964 10.4583 6.06242 10.0417 6.06242C9.5 6.06242 9.07292 6.18742 8.76042 6.43742C8.44792 6.68742 8.29167 7.0277 8.29167 7.45825C8.29167 7.9027 8.47223 8.25686 8.83334 8.52075C9.19445 8.78464 9.77778 9.08325 10.5833 9.41659C11.5417 9.81936 12.2222 10.243 12.625 10.6874C13.0278 11.1319 13.2292 11.7083 13.2292 12.4166C13.2292 12.7638 13.1667 13.0833 13.0417 13.3749C12.9167 13.6666 12.7396 13.9166 12.5104 14.1249C12.2813 14.3333 12 14.5034 11.6667 14.6353C11.3333 14.7673 10.9583 14.8541 10.5417 14.8958V15.9791H9.39584ZM0.833336 9.99992C0.833336 8.73603 1.07292 7.54853 1.55209 6.43742C2.03125 5.32631 2.6875 4.35409 3.52084 3.52075C4.35417 2.68742 5.32639 2.03117 6.4375 1.552C7.54861 1.07284 8.73611 0.833252 10 0.833252C11.5556 0.833252 13.0556 1.29159 14.5 2.20825C15.9444 3.12492 17.0833 4.17353 17.9167 5.35409V2.49992H19.1667V7.49992H14.1667V6.24992H17.0208C16.3125 5.18047 15.3056 4.21867 14 3.3645C12.6944 2.51034 11.3611 2.08325 10 2.08325C8.91667 2.08325 7.89236 2.29159 6.92709 2.70825C5.96181 3.12492 5.12153 3.69089 4.40625 4.40617C3.69097 5.12145 3.125 5.96172 2.70834 6.927C2.29167 7.89228 2.08334 8.91659 2.08334 9.99992H0.833336Z" fill="#EB0A1E"/>
</g>
<defs>
<clipPath id="clip0_941_1311">
<rect width="20" height="20" fill="white"/>
</clipPath>
</defs>
</svg>
