<svg width="20" height="20" viewBox="0 0 20 20" fill="none" xmlns="http://www.w3.org/2000/svg">
<path d="M9.37501 17.8749V17.0576C7.6389 16.8792 6.17736 16.1965 4.99038 15.0096C3.80343 13.8226 3.12074 12.361 2.94232 10.6249H2.12501C1.94793 10.6249 1.7995 10.565 1.67972 10.4452C1.55993 10.3253 1.50003 10.1768 1.50003 9.99969C1.50003 9.82252 1.55993 9.67411 1.67972 9.55446C1.79951 9.43481 1.94794 9.37498 2.12501 9.37498H2.94232C3.12074 7.63887 3.80343 6.17733 4.99038 4.99035C6.17736 3.8034 7.6389 3.12071 9.37501 2.94229V2.12498C9.37501 1.94791 9.43493 1.79948 9.55476 1.67969C9.67461 1.5599 9.82311 1.5 10.0003 1.5C10.1774 1.5 10.3258 1.5599 10.4455 1.67969C10.5651 1.79948 10.625 1.94791 10.625 2.12498V2.94229C12.3611 3.12071 13.8226 3.8034 15.0096 4.99035C16.1966 6.17733 16.8792 7.63887 17.0577 9.37498H17.875C18.052 9.37498 18.2005 9.4349 18.3203 9.55473C18.4401 9.67458 18.4999 9.82308 18.4999 10.0002C18.4999 10.1774 18.4401 10.3258 18.3203 10.4455C18.2005 10.5651 18.052 10.6249 17.875 10.6249H17.0577C16.8792 12.361 16.1966 13.8226 15.0096 15.0096C13.8226 16.1965 12.3611 16.8792 10.625 17.0576V17.8749C10.625 18.052 10.5651 18.2005 10.4452 18.3202C10.3254 18.44 10.1769 18.4999 9.99972 18.4999C9.82255 18.4999 9.67414 18.44 9.55449 18.3202C9.43484 18.2004 9.37501 18.052 9.37501 17.8749ZM9.99999 15.8333C11.6111 15.8333 12.9861 15.2638 14.125 14.125C15.2639 12.9861 15.8333 11.6111 15.8333 9.99996C15.8333 8.38885 15.2639 7.01385 14.125 5.87496C12.9861 4.73607 11.6111 4.16662 9.99999 4.16662C8.38888 4.16662 7.01388 4.73607 5.87499 5.87496C4.7361 7.01385 4.16666 8.38885 4.16666 9.99996C4.16666 11.6111 4.7361 12.9861 5.87499 14.125C7.01388 15.2638 8.38888 15.8333 9.99999 15.8333ZM9.99999 12.9166C9.19792 12.9166 8.5113 12.631 7.94011 12.0598C7.36893 11.4887 7.08334 10.802 7.08334 9.99996C7.08334 9.19789 7.36893 8.51126 7.94011 7.94008C8.5113 7.3689 9.19792 7.08331 9.99999 7.08331C10.8021 7.08331 11.4887 7.3689 12.0599 7.94008C12.631 8.51126 12.9166 9.19789 12.9166 9.99996C12.9166 10.802 12.631 11.4887 12.0599 12.0598C11.4887 12.631 10.8021 12.9166 9.99999 12.9166ZM9.99999 11.6666C10.4583 11.6666 10.8507 11.5034 11.1771 11.177C11.5035 10.8507 11.6667 10.4583 11.6667 9.99996C11.6667 9.54163 11.5035 9.14926 11.1771 8.82288C10.8507 8.49649 10.4583 8.33329 9.99999 8.33329C9.54166 8.33329 9.14929 8.49649 8.82291 8.82288C8.49652 9.14926 8.33332 9.54163 8.33332 9.99996C8.33332 10.4583 8.49652 10.8507 8.82291 11.177C9.14929 11.5034 9.54166 11.6666 9.99999 11.6666Z" fill="#EB0A1E"/>
</svg>
