<svg width="20" height="20" viewBox="0 0 20 20" fill="none" xmlns="http://www.w3.org/2000/svg">
<path d="M10 17.2596C9.52886 17.2596 9.13063 17.0969 8.80531 16.7716C8.47999 16.4463 8.31733 16.048 8.31733 15.5769C8.31733 15.1058 8.47999 14.7075 8.80531 14.3822C9.13063 14.0569 9.52886 13.8942 10 13.8942C10.4711 13.8942 10.8694 14.0569 11.1947 14.3822C11.52 14.7075 11.6827 15.1058 11.6827 15.5769C11.6827 16.048 11.52 16.4463 11.1947 16.7716C10.8694 17.0969 10.4711 17.2596 10 17.2596ZM10 8.97437C11.0096 8.97437 11.9645 9.14103 12.8646 9.47437C13.7647 9.8077 14.578 10.2687 15.3045 10.8574C15.5128 11.0176 15.6204 11.2252 15.6274 11.48C15.6343 11.7348 15.5448 11.9551 15.359 12.141C15.1816 12.3184 14.9634 12.4078 14.7043 12.4094C14.4452 12.411 14.2115 12.336 14.0032 12.1843C13.4541 11.7644 12.8387 11.4343 12.1571 11.1939C11.4754 10.9535 10.7564 10.8333 10 10.8333C9.24358 10.8333 8.52456 10.9535 7.84293 11.1939C7.16131 11.4343 6.54592 11.7644 5.99677 12.1843C5.78845 12.336 5.55475 12.4089 5.29566 12.403C5.03659 12.3972 4.81839 12.3055 4.64104 12.1282C4.46369 11.9423 4.37635 11.7219 4.37902 11.4672C4.3817 11.2124 4.4872 11.0048 4.69552 10.8446C5.42202 10.2559 6.23532 9.79703 7.13541 9.46797C8.03552 9.1389 8.99039 8.97437 10 8.97437ZM10 3.97437C11.7147 3.97437 13.3208 4.26309 14.8181 4.84055C16.3154 5.41801 17.6538 6.22757 18.8333 7.26924C19.0416 7.44659 19.1514 7.66614 19.1626 7.92789C19.1739 8.18964 19.0865 8.41346 18.9006 8.59935C18.7179 8.78204 18.4957 8.87018 18.234 8.86376C17.9722 8.85734 17.7345 8.76707 17.5208 8.59293C16.5048 7.72007 15.3566 7.04191 14.0761 6.55847C12.7957 6.07502 11.437 5.8333 10 5.8333C8.56302 5.8333 7.20432 6.07502 5.92387 6.55847C4.64341 7.04191 3.49517 7.72007 2.47914 8.59293C2.26548 8.76707 2.02777 8.85734 1.76602 8.86376C1.50428 8.87018 1.28207 8.78204 1.09937 8.59935C0.913483 8.41346 0.826143 8.18964 0.837351 7.92789C0.848574 7.66614 0.958351 7.44659 1.16668 7.26924C2.34617 6.22757 3.68457 5.41801 5.18189 4.84055C6.67923 4.26309 8.28526 3.97437 10 3.97437Z" fill="#EB0A1E"/>
</svg>
