<svg width="20" height="20" viewBox="0 0 20 20" fill="none" xmlns="http://www.w3.org/2000/svg">
<path d="M7.35265 14.2311C7.20414 14.0826 7.12988 13.9224 7.12988 13.7504C7.12988 13.5784 7.20414 13.4181 7.35265 13.2696L10.6219 10.0004L7.35265 6.73115C7.20414 6.58265 7.12988 6.4224 7.12988 6.2504C7.12988 6.0784 7.20414 5.91815 7.35265 5.76965C7.50115 5.62113 7.6614 5.54688 7.8334 5.54688C8.0054 5.54688 8.16565 5.62113 8.31415 5.76965L11.976 9.4315C12.0679 9.52338 12.1333 9.61606 12.1723 9.70954C12.2113 9.80301 12.2308 9.89997 12.2308 10.0004C12.2308 10.1008 12.2113 10.1978 12.1723 10.2913C12.1333 10.3847 12.0679 10.4774 11.976 10.5693L8.31415 14.2311C8.16565 14.3797 8.0054 14.4539 7.8334 14.4539C7.6614 14.4539 7.50115 14.3797 7.35265 14.2311Z" fill="#EB0A1E"/>
</svg>
