<svg width="20" height="20" viewBox="0 0 20 20" fill="none" xmlns="http://www.w3.org/2000/svg">
<path d="M4.82535 15.4374V16.1393C4.82535 16.3936 4.73647 16.6145 4.55871 16.802C4.38093 16.9895 4.1561 17.0832 3.88421 17.0832C3.62278 17.0832 3.39618 16.9871 3.20441 16.7949C3.01264 16.6027 2.91675 16.3772 2.91675 16.1185V10.2098L4.59785 5.24992C4.6737 5.04479 4.79873 4.8824 4.97294 4.76275C5.14714 4.64309 5.34102 4.58325 5.55456 4.58325H14.4776C14.6832 4.58325 14.8698 4.64402 15.0375 4.76554C15.2052 4.88707 15.3268 5.04853 15.4023 5.24992L17.0834 10.2098V16.1393C17.0834 16.3936 16.9945 16.6145 16.8167 16.802C16.6389 16.9895 16.4141 17.0832 16.1422 17.0832C15.8808 17.0832 15.6542 16.9871 15.4624 16.7949C15.2707 16.6027 15.1748 16.3772 15.1748 16.1185V15.4374H4.82535ZM4.79812 8.87654H15.202L14.2132 5.91656H5.78691L4.79812 8.87654ZM6.19906 13.2675C6.50228 13.2675 6.75939 13.1614 6.97039 12.9491C7.18141 12.7369 7.28691 12.4791 7.28691 12.1759C7.28691 11.8727 7.18078 11.6156 6.96852 11.4046C6.75625 11.1936 6.49851 11.088 6.19529 11.088C5.89207 11.088 5.63495 11.1942 5.42394 11.4064C5.21294 11.6187 5.10744 11.8764 5.10744 12.1797C5.10744 12.4829 5.21357 12.74 5.42583 12.951C5.6381 13.162 5.89584 13.2675 6.19906 13.2675ZM13.8048 13.2675C14.1081 13.2675 14.3652 13.1614 14.5762 12.9491C14.7872 12.7369 14.8927 12.4791 14.8927 12.1759C14.8927 11.8727 14.7866 11.6156 14.5743 11.4046C14.362 11.1936 14.1043 11.088 13.8011 11.088C13.4978 11.088 13.2407 11.1942 13.0297 11.4064C12.8187 11.6187 12.7132 11.8764 12.7132 12.1797C12.7132 12.4829 12.8193 12.74 13.0316 12.951C13.2439 13.162 13.5016 13.2675 13.8048 13.2675ZM4.25006 14.1041H15.7501V10.2098H4.25006V14.1041Z" fill="#242424"/>
</svg>
