<svg width="24" height="24" viewBox="0 0 24 24" fill="none" xmlns="http://www.w3.org/2000/svg">
<path d="M8.94225 14.75C7.34509 14.75 5.9875 14.191 4.8695 13.073C3.75134 11.9548 3.19225 10.5972 3.19225 9C3.19225 8.72217 3.2125 8.44442 3.253 8.16675C3.29334 7.88892 3.36092 7.62242 3.45575 7.36725C3.51992 7.21342 3.6065 7.09967 3.7155 7.026C3.82434 6.95233 3.94734 6.89883 4.0845 6.8655C4.22184 6.83217 4.36 6.83467 4.499 6.873C4.63817 6.9115 4.76475 6.98783 4.87875 7.102L7.54225 9.74625L9.6885 7.6L7.05375 4.95575C6.93975 4.84158 6.8635 4.71275 6.825 4.56925C6.7865 4.42575 6.78392 4.286 6.81725 4.15C6.85059 4.01417 6.90575 3.89175 6.98275 3.78275C7.05959 3.67375 7.17175 3.58717 7.31925 3.523C7.57442 3.42183 7.83984 3.351 8.1155 3.3105C8.391 3.27017 8.66659 3.25 8.94225 3.25C10.5396 3.25 11.8973 3.809 13.0153 4.927C14.1333 6.04517 14.6923 7.40283 14.6923 9C14.6923 9.42183 14.6525 9.81475 14.573 10.1788C14.4935 10.5429 14.3743 10.8949 14.2153 11.2348L19.65 16.6385C20.0692 17.056 20.2788 17.5671 20.2788 18.1718C20.2788 18.7764 20.0698 19.2884 19.652 19.7078C19.2342 20.1269 18.7227 20.3365 18.1175 20.3365C17.5123 20.3365 17.0001 20.1217 16.5808 19.6923L11.177 14.273C10.8243 14.4257 10.4659 14.5433 10.1018 14.626C9.73742 14.7087 9.35092 14.75 8.94225 14.75ZM8.94225 13.25C9.37992 13.25 9.81759 13.1849 10.2553 13.0548C10.6928 12.9248 11.0929 12.7212 11.4558 12.4443L17.6655 18.654C17.7872 18.7757 17.9397 18.834 18.123 18.829C18.3063 18.8238 18.4589 18.7603 18.5808 18.6385C18.7026 18.5167 18.7635 18.3641 18.7635 18.1807C18.7635 17.9974 18.7026 17.8448 18.5808 17.723L12.3713 11.5288C12.6519 11.1826 12.8589 10.7887 12.9923 10.347C13.1256 9.90533 13.1923 9.45633 13.1923 9C13.1923 7.891 12.7961 6.90958 12.0038 6.05575C11.2114 5.20192 10.2088 4.78333 8.996 4.8L11.1635 6.96725C11.3442 7.14808 11.4345 7.359 11.4345 7.6C11.4345 7.841 11.3442 8.05192 11.1635 8.23275L8.175 11.2213C7.99417 11.4019 7.78325 11.4923 7.54225 11.4923C7.30125 11.4923 7.09034 11.4019 6.9095 11.2213L4.74225 9.05375C4.74475 10.3371 5.17617 11.3573 6.0365 12.1145C6.89684 12.8715 7.86542 13.25 8.94225 13.25Z" fill="white"/>
</svg>
