<svg width="20" height="20" viewBox="0 0 20 20" fill="none" xmlns="http://www.w3.org/2000/svg">
<path d="M3.95837 17.5C3.78129 17.5 3.63285 17.4401 3.51306 17.3203C3.39327 17.2005 3.33337 17.0521 3.33337 16.875V3.75C3.33337 3.41667 3.45837 3.125 3.70837 2.875C3.95837 2.625 4.25004 2.5 4.58337 2.5H10.1875C10.5209 2.5 10.8125 2.625 11.0625 2.875C11.3125 3.125 11.4375 3.41667 11.4375 3.75V9.75H12.7917C13.0782 9.75 13.3234 9.852 13.5274 10.056C13.7314 10.26 13.8334 10.5052 13.8334 10.7917V15.3542C13.8334 15.6552 13.941 15.9076 14.1563 16.1112C14.3716 16.3148 14.632 16.4167 14.9375 16.4167C15.2431 16.4167 15.5035 16.3148 15.7188 16.1112C15.9341 15.9076 16.0417 15.6552 16.0417 15.3542V9.20833C15.8889 9.29167 15.7292 9.35417 15.5625 9.39583C15.3959 9.4375 15.2292 9.45833 15.0625 9.45833C14.5142 9.45833 14.0507 9.26903 13.6721 8.89042C13.2935 8.51181 13.1042 8.04833 13.1042 7.5C13.1042 7.06092 13.2292 6.66642 13.4792 6.31652C13.7292 5.96662 14.0625 5.73611 14.4792 5.625L12.875 4.02083C12.7639 3.91478 12.7084 3.79104 12.7084 3.64963C12.7084 3.50821 12.7635 3.37867 12.8738 3.26102C12.9719 3.15645 13.0938 3.10764 13.2396 3.11458C13.3855 3.12153 13.5139 3.18056 13.625 3.29167L16.4375 6.10417C16.632 6.29861 16.7882 6.51042 16.9063 6.73958C17.0243 6.96875 17.0834 7.22222 17.0834 7.5V15.3542C17.0834 15.955 16.8763 16.4628 16.4622 16.8777C16.0481 17.2926 15.5411 17.5 14.9414 17.5C14.3416 17.5 13.8334 17.2926 13.4167 16.8777C13 16.4628 12.7917 15.955 12.7917 15.3542V10.7917H11.4375V16.875C11.4375 17.0521 11.3776 17.2005 11.2579 17.3203C11.1381 17.4401 10.9896 17.5 10.8125 17.5H3.95837ZM4.58337 8.5H10.1875V3.75H4.58337V8.5ZM15.0625 8.41667C15.3125 8.41667 15.5278 8.32639 15.7084 8.14583C15.8889 7.96528 15.9792 7.75 15.9792 7.5C15.9792 7.25 15.8889 7.03472 15.7084 6.85417C15.5278 6.67361 15.3125 6.58333 15.0625 6.58333C14.8125 6.58333 14.5973 6.67361 14.4167 6.85417C14.2362 7.03472 14.1459 7.25 14.1459 7.5C14.1459 7.75 14.2362 7.96528 14.4167 8.14583C14.5973 8.32639 14.8125 8.41667 15.0625 8.41667ZM4.58337 16.25H10.1875V9.75H4.58337V16.25Z" fill="#242424"/>
</svg>
