<svg width="13" height="13" viewBox="0 0 13 13" fill="none" xmlns="http://www.w3.org/2000/svg">
<path d="M6.33353 9.49997C6.47527 9.49997 6.59955 9.4465 6.70638 9.33957C6.81322 9.23262 6.86663 9.11026 6.86663 8.97247V6.1775C6.86663 6.04377 6.81314 5.92519 6.70617 5.82177C6.59918 5.71836 6.47482 5.66665 6.3331 5.66665C6.19137 5.66665 6.06708 5.72012 5.96025 5.82707C5.85342 5.93401 5.8 6.05638 5.8 6.19417V8.98913C5.8 9.12286 5.85349 9.24143 5.96047 9.34485C6.06746 9.44826 6.19181 9.49997 6.33353 9.49997ZM6.33332 4.50897C6.48588 4.50897 6.61932 4.45181 6.73363 4.3375C6.84794 4.22319 6.9051 4.08975 6.9051 3.93718C6.9051 3.78463 6.84794 3.65119 6.73363 3.53687C6.61932 3.42256 6.48588 3.3654 6.33332 3.3654C6.18075 3.3654 6.04731 3.42256 5.933 3.53687C5.81869 3.65119 5.76153 3.78463 5.76153 3.93718C5.76153 4.08975 5.81869 4.22319 5.933 4.3375C6.04731 4.45181 6.18075 4.50897 6.33332 4.50897ZM6.33332 12.6666C5.45383 12.6666 4.62883 12.5012 3.85833 12.1705C3.08782 11.8397 2.41752 11.3893 1.84743 10.8192C1.27736 10.2491 0.826933 9.57881 0.496167 8.8083C0.165389 8.0378 0 7.21281 0 6.33332C0 5.45383 0.165389 4.62883 0.496167 3.85833C0.826933 3.08782 1.27736 2.41752 1.84743 1.84743C2.41752 1.27736 3.08782 0.826933 3.85833 0.496167C4.62883 0.165389 5.45383 0 6.33332 0C7.21281 0 8.0378 0.165389 8.8083 0.496167C9.57881 0.826933 10.2491 1.27736 10.8192 1.84743C11.3893 2.41752 11.8397 3.08782 12.1705 3.85833C12.5012 4.62883 12.6666 5.45383 12.6666 6.33332C12.6666 7.21281 12.5012 8.0378 12.1705 8.8083C11.8397 9.57881 11.3893 10.2491 10.8192 10.8192C10.2491 11.3893 9.57881 11.8397 8.8083 12.1705C8.0378 12.5012 7.21281 12.6666 6.33332 12.6666ZM6.32935 11.6C7.78755 11.6 9.03054 11.0874 10.0583 10.0623C11.0861 9.03716 11.6 7.79549 11.6 6.33728C11.6 4.87908 11.0874 3.63609 10.0623 2.60832C9.03716 1.58054 7.79549 1.06665 6.33728 1.06665C4.87908 1.06665 3.63609 1.57922 2.60832 2.60435C1.58054 3.62947 1.06665 4.87114 1.06665 6.32935C1.06665 7.78755 1.57922 9.03054 2.60435 10.0583C3.62947 11.0861 4.87114 11.6 6.32935 11.6Z" fill="white"/>
</svg>
