<svg width="15" height="25" viewBox="0 0 15 25" fill="none" xmlns="http://www.w3.org/2000/svg">
<g clip-path="url(#clip0_863_1730)">
<path d="M9.42773 12.4649C10.1249 11.5746 10.2501 10.7343 10.0525 9.97723C13.3839 9.87711 12.5884 4.73828 12.5884 4.73828C9.86126 5.87435 9.3723 7.56734 9.40719 8.71685C8.28537 7.24909 6.26434 6.31594 6.26434 6.31594C5.20059 11.8133 9.42773 12.4649 9.42773 12.4649Z" fill="#FF901D"/>
<path d="M8.56055 15.3138C9.13699 15.6722 9.67253 15.8225 10.165 15.8225C12.7796 15.8225 14.2008 11.5855 14.2008 11.5855C13.9228 11.5622 13.6573 11.5515 13.4053 11.5515C8.72594 11.5515 8.56055 15.3138 8.56055 15.3138Z" fill="#FF901D"/>
<path d="M7.94383 17.6734C8.995 15.3431 6.3644 11.9526 6.3644 11.9526C3.39849 15.6998 5.27124 18.1436 6.04975 18.9078C5.30511 19.6971 5.03256 20.498 5.03256 20.498C5.85397 21.4143 6.72636 21.7655 7.58096 21.7655C10.36 21.7655 12.9442 18.0533 12.9442 18.0533C11.6999 17.576 10.6379 17.3846 9.73517 17.3846C9.05049 17.3847 8.45603 17.4946 7.94383 17.6734Z" fill="#FF901D"/>
<path d="M0.916231 23.1993C5.4669 22.8132 3.36725 16.4077 3.36725 16.4077C-1.59194 19.504 0.916231 23.1993 0.916231 23.1993Z" fill="#FF901D"/>
<path d="M9.33023 5.5562C11.3191 2.54745 6.32148 0.711426 6.32148 0.711426C5.81105 5.30151 9.33023 5.5562 9.33023 5.5562Z" fill="#FF901D"/>
<path d="M0.00476742 22.7928C0.0481701 22.7753 -0.0383415 22.8105 0.00476742 22.7928C3.33265 21.4264 5.78522 19.4597 7.32708 16.9118C9.02277 14.1104 9.27752 11.1016 9.19354 9.06987C9.10143 6.86199 8.60537 5.32277 8.59999 5.30755C8.49541 4.98752 8.67059 4.64249 8.99056 4.53792C9.31059 4.43334 9.65562 4.60765 9.76014 4.92854C9.78251 4.99742 10.3135 6.64476 10.4127 9.0189C10.4708 10.4142 10.3671 11.7756 10.1043 13.0637C9.77439 14.6815 9.19074 16.1895 8.3711 17.5437C6.61737 20.4407 3.81428 22.6365 0.00476742 24.1067C0.048152 24.0902 -0.0383596 24.1233 0.00476742 24.1067V22.7928Z" fill="#F7BC14"/>
</g>
<defs>
<clipPath id="clip0_863_1730">
<rect width="14.375" height="25" fill="white"/>
</clipPath>
</defs>
</svg>
