<svg width="15" height="25" viewBox="0 0 15 25" fill="none" xmlns="http://www.w3.org/2000/svg">
<g clip-path="url(#clip0_863_1721)">
<path d="M4.94727 12.4649C4.25006 11.5746 4.12494 10.7343 4.32248 9.97723C0.991067 9.87711 1.78656 4.73828 1.78656 4.73828C4.51374 5.87435 5.0027 7.56734 4.96781 8.71685C6.08963 7.24909 8.11066 6.31594 8.11066 6.31594C9.17441 11.8133 4.94727 12.4649 4.94727 12.4649Z" fill="#FF901D"/>
<path d="M5.81445 15.3138C5.23801 15.6722 4.70247 15.8225 4.20996 15.8225C1.59543 15.8225 0.17418 11.5855 0.17418 11.5855C0.45216 11.5622 0.717669 11.5515 0.969676 11.5515C5.64906 11.5515 5.81445 15.3138 5.81445 15.3138Z" fill="#FF901D"/>
<path d="M6.43117 17.6734C5.38 15.3431 8.0106 11.9526 8.0106 11.9526C10.9765 15.6998 9.10376 18.1436 8.32525 18.9078C9.06989 19.6971 9.34244 20.498 9.34244 20.498C8.52103 21.4143 7.64864 21.7655 6.79404 21.7655C4.01504 21.7655 1.43084 18.0533 1.43084 18.0533C2.67514 17.576 3.73706 17.3846 4.63983 17.3846C5.32451 17.3847 5.91897 17.4946 6.43117 17.6734Z" fill="#FF901D"/>
<path d="M13.4588 23.1993C8.9081 22.8132 11.0077 16.4077 11.0077 16.4077C15.9669 19.504 13.4588 23.1993 13.4588 23.1993Z" fill="#FF901D"/>
<path d="M5.04477 5.5562C3.05588 2.54745 8.05352 0.711426 8.05352 0.711426C8.56395 5.30151 5.04477 5.5562 5.04477 5.5562Z" fill="#FF901D"/>
<path d="M14.3702 22.7928C14.3268 22.7753 14.4133 22.8105 14.3702 22.7928C11.0424 21.4264 8.58978 19.4597 7.04792 16.9118C5.35223 14.1104 5.09748 11.1016 5.18146 9.06987C5.27357 6.86199 5.76963 5.32277 5.77501 5.30755C5.87959 4.98752 5.70441 4.64249 5.38444 4.53792C5.06441 4.43334 4.71938 4.60765 4.61486 4.92854C4.59249 4.99742 4.06153 6.64476 3.96233 9.0189C3.9042 10.4142 4.00792 11.7756 4.27069 13.0637C4.60061 14.6815 5.18426 16.1895 6.0039 17.5437C7.75763 20.4407 10.5607 22.6365 14.3702 24.1067C14.3268 24.0902 14.4134 24.1233 14.3702 24.1067V22.7928Z" fill="#F7BC14"/>
</g>
<defs>
<clipPath id="clip0_863_1721">
<rect width="14.375" height="25" fill="white" transform="matrix(-1 0 0 1 14.375 0)"/>
</clipPath>
</defs>
</svg>
