<svg width="16" height="16" viewBox="0 0 16 16" fill="none" xmlns="http://www.w3.org/2000/svg">
<path d="M1.25 14.0107H2.16667L11.3958 4.78154L10.4792 3.86488L1.25 13.094V14.0107ZM14.0417 3.88571L11.375 1.21904L12.2463 0.347732C12.4849 0.109163 12.7812 -0.00664981 13.1354 0.000294639C13.4896 0.00723908 13.7847 0.128767 14.0208 0.364878L14.9167 1.26071C15.1528 1.49682 15.2708 1.78849 15.2708 2.13571C15.2708 2.48293 15.153 2.77434 14.9174 3.00994L14.0417 3.88571ZM0.631812 15.2607C0.452799 15.2607 0.302743 15.2002 0.181646 15.0792C0.0605485 14.9581 0 14.8082 0 14.6292V12.8453C0 12.7611 0.0138889 12.6843 0.0416667 12.6149C0.0694444 12.5454 0.118056 12.476 0.1875 12.4065L10.5 2.09404L13.1667 4.76071L2.85417 15.0732C2.78472 15.1427 2.71377 15.1913 2.64131 15.219C2.56884 15.2468 2.49396 15.2607 2.41667 15.2607H0.631812ZM10.9375 4.32321L10.4792 3.86488L11.3958 4.78154L10.9375 4.32321Z" fill="white"/>
</svg>
