<svg width="16" height="16" viewBox="0 0 16 16" fill="none" xmlns="http://www.w3.org/2000/svg">
<path d="M8.02538 13C6.62954 13 5.44725 12.5157 4.47851 11.5471C3.50976 10.5786 3.02539 9.39654 3.02539 8.001C3.02539 6.60546 3.50976 5.42307 4.47851 4.45385C5.44725 3.48462 6.62954 3 8.02538 3C8.79375 3 9.51469 3.17052 10.1882 3.51155C10.8617 3.85257 11.4348 4.32779 11.9074 4.9372V3.53333C11.9074 3.39167 11.9609 3.26736 12.0679 3.16042C12.1749 3.05347 12.2992 3 12.441 3C12.5827 3 12.707 3.05347 12.8138 3.16042C12.9206 3.26736 12.9741 3.39247 12.9741 3.53575V6.53857C12.9741 6.71091 12.9108 6.86038 12.7842 6.98698C12.6576 7.11358 12.5081 7.17688 12.3357 7.17688H9.33293C9.18965 7.17688 9.06454 7.1234 8.95759 7.01642C8.85065 6.90943 8.79717 6.78507 8.79717 6.64335C8.79717 6.50162 8.85065 6.37733 8.95759 6.2705C9.06454 6.16367 9.188 6.11025 9.32799 6.11025H11.4472C11.0959 5.48888 10.6175 4.99294 10.0119 4.62242C9.40635 4.25191 8.74418 4.06665 8.02538 4.06665C6.93278 4.06665 6.00407 4.44868 5.23926 5.21273C4.47445 5.97678 4.09204 6.90456 4.09204 7.99607C4.09204 9.08757 4.47464 10.0167 5.23982 10.7833C6.00501 11.55 6.93417 11.9333 8.02731 11.9333C8.80721 11.9333 9.51639 11.7293 10.1549 11.3211C10.7933 10.913 11.2673 10.3585 11.5767 9.65767C11.6305 9.56537 11.705 9.48546 11.8001 9.41793C11.8952 9.35041 11.9963 9.31665 12.1036 9.31665C12.3172 9.31665 12.4719 9.38866 12.5677 9.53267C12.6634 9.67668 12.6685 9.83971 12.583 10.0218C12.1882 10.9209 11.5805 11.6421 10.7601 12.1852C9.93974 12.7284 9.02815 13 8.02538 13Z" fill="#EB0A1E"/>
</svg>
