<svg width="12" height="13" viewBox="0 0 12 13" fill="none" xmlns="http://www.w3.org/2000/svg">
<path d="M0.945253 12.838C0.812781 12.8915 0.682447 12.9083 0.554253 12.8885C0.426044 12.8688 0.311197 12.8081 0.209711 12.7066C0.108211 12.6051 0.0427735 12.4882 0.0133985 12.3557C-0.0159904 12.2232 0.00296787 12.0977 0.0702734 11.9791L5.21448 0.472771C5.35123 0.15759 5.58841 0 5.926 0C6.26361 0 6.50079 0.15759 6.63754 0.472771L11.7817 11.9791C11.849 12.0977 11.868 12.2232 11.8386 12.3557C11.8093 12.4882 11.7438 12.6051 11.6423 12.7066C11.5408 12.8081 11.426 12.8688 11.2978 12.8885C11.1696 12.9083 11.0392 12.8915 10.9068 12.838L5.926 10.7211L0.945253 12.838Z" fill="#EB0A1E"/>
</svg>
