<svg width="9" height="6" viewBox="0 0 9 6" fill="none" xmlns="http://www.w3.org/2000/svg">
<path d="M4.42996 5.09099C4.33488 5.09099 4.23926 5.07149 4.14311 5.03249C4.04695 4.99349 3.95294 4.92805 3.86107 4.83617L0.186379 1.16151C0.0517676 1.0269 -0.00992686 0.865306 0.00129536 0.676736C0.0125037 0.488167 0.0784759 0.333521 0.199212 0.212799C0.347712 0.064299 0.507962 -0.00647908 0.679962 0.00046536C0.851962 0.0074098 1.00527 0.0781879 1.13988 0.212799L4.42996 3.52372L7.73286 0.220819C7.86747 0.0862083 8.01864 0.0175629 8.18638 0.0148824C8.3541 0.0122157 8.51221 0.0851324 8.66071 0.233632C8.79534 0.368243 8.86265 0.525028 8.86265 0.703987C8.86265 0.882931 8.79534 1.03971 8.66071 1.17432L4.99886 4.83617C4.90698 4.92805 4.8143 4.99349 4.72082 5.03249C4.62734 5.07149 4.53039 5.09099 4.42996 5.09099Z" fill="#EB0A1E"/>
</svg>
