<svg width="20" height="20" viewBox="0 0 20 20" fill="none" xmlns="http://www.w3.org/2000/svg">
<path d="M8.79453 12.8093C9.09047 13.0913 9.48203 13.2318 9.9692 13.2307C10.4564 13.2297 10.8159 13.0545 11.0477 12.7051L14.2721 8.02083C14.4056 7.82853 14.3874 7.64744 14.2176 7.47756C14.0477 7.3077 13.8666 7.28954 13.6743 7.42308L8.94036 10.6186C8.58567 10.8365 8.3987 11.1821 8.37947 11.6554C8.36024 12.1287 8.4986 12.5133 8.79453 12.8093ZM4.33299 16.25C4.08299 16.25 3.85249 16.1965 3.64149 16.0897C3.43049 15.9829 3.26463 15.8173 3.1439 15.5929C2.82553 15.0374 2.56912 14.4316 2.37467 13.7756C2.18023 13.1196 2.08301 12.4097 2.08301 11.6458C2.08301 10.571 2.28974 9.55422 2.70322 8.59535C3.11667 7.63648 3.68051 6.79727 4.39472 6.07773C5.10891 5.35817 5.94892 4.79033 6.91474 4.37421C7.88054 3.95807 8.90885 3.75 9.99965 3.75C10.6407 3.75 11.2408 3.8125 11.8001 3.9375C12.3594 4.0625 12.9072 4.25962 13.4436 4.52885C13.6433 4.6218 13.7574 4.77644 13.7857 4.99279C13.814 5.20912 13.7427 5.4033 13.5718 5.57531C13.4628 5.68215 13.3343 5.74624 13.1863 5.7676C13.0384 5.78898 12.8928 5.76601 12.7497 5.69871C12.3223 5.49357 11.8776 5.33972 11.4155 5.23717C10.9535 5.1346 10.4815 5.08331 9.99965 5.08331C8.18021 5.08331 6.62813 5.72567 5.3434 7.0104C4.05868 8.29512 3.41632 9.84026 3.41632 11.6458C3.41632 12.2153 3.49965 12.7812 3.66632 13.3437C3.83299 13.9062 4.05521 14.4305 4.33299 14.9166H15.6663C15.9719 14.4166 16.201 13.8785 16.3538 13.3021C16.5066 12.7257 16.583 12.1458 16.583 11.5625C16.583 11.1373 16.5309 10.6856 16.4267 10.2075C16.3226 9.7294 16.161 9.28095 15.942 8.86215C15.8715 8.71044 15.8512 8.56541 15.8811 8.42706C15.911 8.28872 15.9836 8.16773 16.099 8.0641C16.2764 7.93162 16.4663 7.88113 16.6687 7.91265C16.8712 7.94417 17.0215 8.05983 17.1198 8.2596C17.3912 8.80874 17.5944 9.3448 17.7296 9.86777C17.8647 10.3907 17.927 10.9402 17.9163 11.516C17.9302 12.2703 17.8501 12.9866 17.6759 13.665C17.5018 14.3435 17.2352 14.9968 16.8762 15.625C16.7662 15.8333 16.5974 15.9895 16.3698 16.0937C16.1423 16.1979 15.9078 16.25 15.6663 16.25H4.33299Z" fill="#242424"/>
</svg>
